:SAMPLES-PER-SECOND 30
:FULLY-SPECIFIED
:DEGREES
142
root  -0.446439 39.8954 -5.0484 -152.352 -66.4105 154.595
RightUpLeg  -15.6327 -15.9929 -14.8583
RightLeg  12.8138 7.28889 1.74521
RightFoot  -0.398713 -0.359467 3.72257
RightToes  -1.74624e-010 0 -3.6325e-017
Spine  12.7151 -1.17378 16.8652
Spine1  -0.787459 1.5463 -7.20155
HEad  -27.2181 -41.3222 -2.01697
LeftShoulder1  -0.0987942 3.77845 -29.7125
LeftArm  1.23082 13.9488 -42.2898
LeftForeArm  33.957 -37.0163 -6.39089
LeftHand  -0.0167354 3.72848 -0.188287
RightShoulder  -0.616726 -6.2638 15.2567
RightArm  -57.8706 15.6258 -4.79037
RightForeArm  -177.691 53.6369 167.34
RightHand  -1.2724 8.49266 -10.9676
LeftUpLeg  -5.43229 16.6733 1.75872
LeftLeg  15.9576 0.493582 0.431325
LeftFoot  -1.18341 1.04197 -11.6166
LeftToes  -3.96543e-010 8.93632e-011 -2.58531e-011
143
root  -0.487989 39.9079 -4.94864 -151.826 -67.9603 153.863
RightUpLeg  -14.5039 -16.3743 -15.0967
RightLeg  12.1824 6.23758 1.74743
RightFoot  -0.29794 -0.386348 3.97308
RightToes  -1.74624e-010 0 -3.6325e-017
Spine  12.031 -1.09079 15.9644
Spine1  -0.492792 1.2893 -6.10247
HEad  -24.6817 -37.4023 -5.92133
LeftShoulder1  -0.19721 4.0393 -30.7256
LeftArm  0.989454 14.4427 -41.5085
LeftForeArm  33.6328 -37.7635 -6.61327
LeftHand  -0.0279094 4.33404 0.425124
RightShoulder  -0.731142 -6.36425 18.6571
RightArm  -52.4855 15.7994 -2.14733
RightForeArm  -177.819 48.0316 169.574
RightHand  -1.21954 8.64615 -10.4127
LeftUpLeg  -5.43055 16.8547 2.21446
LeftLeg  15.8612 0.814853 0.537475
LeftFoot  -1.54181 1.01057 -11.6482
LeftToes  -3.96543e-010 8.93632e-011 -2.58531e-011
144
root  -0.529187 39.9161 -4.80555 -151.227 -69.5021 153.215
RightUpLeg  -13.5329 -16.522 -15.2666
RightLeg  11.4609 5.00201 1.6641
RightFoot  -0.0802386 -0.418014 4.23088
RightToes  -1.74624e-010 0 -3.6325e-017
Spine  11.1777 -1.05221 15.2547
Spine1  -0.111914 1.07096 -5.50467
HEad  -21.9755 -32.3025 -9.54048
LeftShoulder1  -0.271879 4.23578 -31.0225
LeftArm  0.24854 15.1309 -41.4573
LeftForeArm  33.5614 -38.0312 -6.692
LeftHand  -0.0302462 3.84879 0.745294
RightShoulder  -0.863776 -6.52175 21.9448
RightArm  -44.9922 17.2252 1.26929
RightForeArm  -178.053 45.005 170.584
RightHand  -1.05115 8.22473 -9.33552
LeftUpLeg  -5.4264 17.4794 2.72288
LeftLeg  15.0457 0.694193 0.336237
LeftFoot  -1.97246 0.928798 -11.1661
LeftToes  -3.96543e-010 8.93632e-011 -2.58531e-011
145
root  -0.57525 39.921 -4.59176 -151.163 -70.9707 152.882
RightUpLeg  -12.2376 -16.6117 -15.4986
RightLeg  10.5259 3.84745 1.61489
RightFoot  0.207693 -0.478007 4.7371
RightToes  -1.74624e-010 0 -3.6325e-017
Spine  10.5152 -0.960851 14.8051
Spine1  0.357524 1.02134 -5.21559
HEad  -19.3334 -26.5035 -12.9979
LeftShoulder1  -0.306093 4.31981 -31.3723
LeftArm  -0.0563584 15.6933 -41.3228
LeftForeArm  33.6838 -38.2102 -6.73436
LeftHand  -0.0254529 3.83239 0.31261
RightShoulder  -0.901228 -6.4192 24.29
RightArm  -35.5297 17.9916 6.43016
RightForeArm  -177.973 44.9989 170.583
RightHand  -0.933896 9.40752 -7.67858
LeftUpLeg  -4.9107 17.6909 3.36303
LeftLeg  13.504 2.04091 0.145229
LeftFoot  -2.41648 0.857142 -10.7727
LeftToes  -3.96543e-010 8.93632e-011 -2.58531e-011
146
root  -0.635318 39.9047 -4.29796 -150.951 -72.1141 152.538
RightUpLeg  -11.3211 -16.8368 -15.8825
RightLeg  9.78877 3.1316 1.65466
RightFoot  0.464662 -0.553988 5.38345
RightToes  -1.74624e-010 0 -3.6325e-017
Spine  9.8106 -0.920765 14.7003
Spine1  0.844734 1.11834 -5.91483
HEad  -17.4935 -20.1442 -14.8708
LeftShoulder1  -0.385677 4.52813 -31.5193
LeftArm  -0.325098 15.9681 -41.1018
LeftForeArm  33.6426 -37.807 -6.62543
LeftHand  -0.034447 3.46236 1.01445
RightShoulder  -0.910981 -6.3118 25.8536
RightArm  -24.4001 17.971 14.7227
RightForeArm  -175.751 48.0889 169.669
RightHand  -1.08013 8.50611 -9.3223
LeftUpLeg  -4.42593 16.6583 3.71408
LeftLeg  11.6617 5.45895 0.00672165
LeftFoot  -2.95263 0.760179 -10.1051
LeftToes  -3.96543e-010 8.93632e-011 -2.58531e-011
147
root  -0.718255 39.8645 -3.94695 -151.307 -73.4038 153.042
RightUpLeg  -10.631 -16.871 -15.9803
RightLeg  9.04062 2.14131 1.65261
RightFoot  0.712797 -0.635157 6.05654
RightToes  -1.74624e-010 0 -3.6325e-017
Spine  8.76425 -0.64321 15.4759
Spine1  1.40214 1.63329 -7.44816
HEad  -15.223 -14.1622 -16.3848
LeftShoulder1  -0.371719 4.49145 -31.5033
LeftArm  0.0244171 15.9282 -40.8878
LeftForeArm  33.3067 -36.8648 -6.38838
LeftHand  -0.0286617 4.11291 0.489141
RightShoulder  -0.908599 -6.2031 27.081
RightArm  -15.9707 15.5826 22.4624
RightForeArm  -174.757 54.0016 167.352
RightHand  -0.841377 7.11459 -8.12162
LeftUpLeg  -4.37045 15.3662 4.12231
LeftLeg  10.1799 9.68289 -0.0886869
LeftFoot  -3.36601 0.673706 -9.36183
LeftToes  -3.96543e-010 8.93632e-011 -2.58531e-011
148
root  -0.827379 39.8004 -3.53091 -151.852 -74.3825 153.334
RightUpLeg  -9.70931 -16.9855 -16.4022
RightLeg  8.49395 1.59002 1.54939
RightFoot  0.74749 -0.738984 7.01814
RightToes  -1.74624e-010 0 -3.6325e-017
Spine  8.46089 -0.30179 15.8829
Spine1  1.52028 2.27247 -8.95079
HEad  -13.6931 -9.13489 -16.8716
LeftShoulder1  -0.419063 4.61841 -31.4609
LeftArm  0.0713422 16.0069 -40.7223
LeftForeArm  32.9163 -35.7352 -6.11122
LeftHand  -0.024861 4.5099 -0.151643
RightShoulder  -0.941997 -6.22653 28.0253
RightArm  -10.1949 12.5022 29.1217
RightForeArm  -178.55 62.7294 161.917
RightHand  -1.04341 8.66753 -8.9679
LeftUpLeg  -3.86298 14.4352 4.19701
LeftLeg  9.07242 13.6244 -0.246267
LeftFoot  -3.63033 0.618058 -8.84374
LeftToes  -3.96543e-010 8.93632e-011 -2.58531e-011
149
root  -0.957497 39.7053 -3.05101 -152.987 -76.0425 154.226
RightUpLeg  -8.42328 -16.9937 -16.6483
RightLeg  7.81332 0.410797 1.47329
RightFoot  0.741882 -0.870191 8.25747
RightToes  -1.74624e-010 0 -3.6325e-017
Spine  7.76369 0.0567265 16.0853
Spine1  1.91988 2.73742 -9.66442
HEad  -11.96 -4.75156 -16.5238
LeftShoulder1  -0.444827 4.67746 -31.7457
LeftArm  -0.364402 16.2327 -40.7203
LeftForeArm  32.7774 -34.2436 -5.73838
LeftHand  -0.0301 2.88586 0.729286
RightShoulder  -0.98371 -6.31726 28.4042
RightArm  -6.97112 9.39303 34.164
RightForeArm  168.537 73.7261 146.339
RightHand  -0.849605 8.72415 -7.35133
LeftUpLeg  -3.7508 14.2972 4.33902
LeftLeg  8.90943 15.2059 -0.191717
LeftFoot  -3.77324 0.541466 -7.81845
LeftToes  -3.96543e-010 8.93632e-011 -2.58531e-011
150
root  -1.15683 39.6275 -2.4983 -153.22 -78.0384 153.908
RightUpLeg  -6.37132 -17.2077 -17.3897
RightLeg  6.81136 -0.722271 1.47627
RightFoot  0.78049 -1.01881 9.61573
RightToes  -1.74624e-010 0 -3.6325e-017
Spine  6.93478 0.361998 15.4997
Spine1  2.5083 2.98302 -9.73216
HEad  -9.72528 -1.85555 -15.4721
LeftShoulder1  -0.49976 4.80546 -32.2551
LeftArm  0.276767 16.1007 -40.4649
LeftForeArm  31.1442 -32.0628 -5.29033
LeftHand  -0.0298889 3.79825 0.735917
RightShoulder  -0.900695 -6.11413 27.9273
RightArm  -5.01419 7.20961 37.4924
RightForeArm  103.702 80.5382 82.9637
RightHand  -0.851326 8.22547 -7.59747
LeftUpLeg  -3.47082 13.3751 4.0063
LeftLeg  9.16647 15.3814 0.111345
LeftFoot  -4.44861 0.356749 -5.47775
LeftToes  -3.96543e-010 8.93632e-011 -2.58531e-011
151
root  -1.3434 39.5904 -1.93814 -150.756 -80.1435 150.586
RightUpLeg  -3.81063 -17.2969 -18.5002
RightLeg  5.59868 -2.27956 1.12541
RightFoot  0.815679 -1.18232 11.1378
RightToes  -1.74624e-010 0 -3.6325e-017
Spine  6.6397 0.560582 14.18
Spine1  2.80726 3.23418 -10.4337
HEad  -7.95568 -1.168 -12.8637
LeftShoulder1  -0.490538 4.78765 -32.062
LeftArm  1.04761 15.9446 -40.6737
LeftForeArm  29.1419 -29.6069 -4.81255
LeftHand  -0.0289485 4.78212 0.695891
RightShoulder  -0.944063 -6.20605 28.3753
RightArm  -2.1809 7.10603 38.6105
RightForeArm  42.8988 69.017 25.1545
RightHand  -0.661439 7.38128 -6.35433
LeftUpLeg  -3.72584 12.3976 3.2505
LeftLeg  10.9761 14.1766 1.03557
LeftFoot  -5.31506 0.252845 -4.20542
LeftToes  -3.96543e-010 8.93632e-011 -2.58531e-011
152
root  -1.54975 39.4673 -1.33586 -142.098 -82.1023 140.875
RightUpLeg  -2.07304 -17.9155 -20.2385
RightLeg  6.65093 -3.10566 0.439319
RightFoot  -0.255849 -1.19501 12.2442
RightToes  -1.74624e-010 0 -3.6325e-017
Spine  6.3615 0.67988 12.0051
Spine1  3.53314 3.32134 -10.6481
HEad  -6.86418 -1.52826 -10.5078
LeftShoulder1  -0.526666 4.87645 -32.2213
LeftArm  2.76913 14.5017 -40.6257
LeftForeArm  26.4641 -25.3928 -4.08383
LeftHand  -0.0276338 4.33856 0.472496
RightShoulder  -0.894315 -6.06029 28.3917
RightArm  2.96097 8.01147 40.0001
RightForeArm  27.8363 50.9755 11.4199
RightHand  -0.578046 7.4038 -5.62784
LeftUpLeg  -3.80968 12.5282 2.07866
LeftLeg  12.9217 11.5998 1.53054
LeftFoot  -6.38236 0.203908 -3.83205
LeftToes  -3.96543e-010 8.93632e-011 -2.58531e-011
153
root  -1.78651 39.3402 -0.762209 -129.68 -83.2194 127.404
RightUpLeg  -1.46533 -16.7583 -21.6355
RightLeg  9.37727 -3.85761 -1.05366
RightFoot  -2.39945 -0.950715 11.953
RightToes  -1.74624e-010 0 -3.6325e-017
Spine  6.46984 1.06226 10.2485
Spine1  4.04209 3.9012 -11.8546
HEad  -6.11008 -2.56459 -7.56803
LeftShoulder1  -0.45037 4.68871 -31.8674
LeftArm  2.68237 12.3728 -40.55
LeftForeArm  25.848 -19.8383 -4.38842
LeftHand  -0.0338862 5.44724 -0.740451
RightShoulder  -0.802659 -5.82263 28.0029
RightArm  12.9955 8.82216 42.2711
RightForeArm  18.4159 31.9569 5.95103
RightHand  -0.533113 8.9675 -4.68668
LeftUpLeg  -3.16653 11.8823 0.866643
LeftLeg  14.0246 10.1626 1.37251
LeftFoot  -7.83666 0.162229 -3.76767
LeftToes  -3.96543e-010 8.93632e-011 -2.58531e-011
154
root  -2.07462 39.2243 -0.210352 -125.112 -83.183 122.316
RightUpLeg  -2.95189 -10.1375 -21.8102
RightLeg  13.524 -4.72742 -2.21049
RightFoot  -5.50002 -0.544148 9.74592
RightToes  -1.74624e-010 0 -3.6325e-017
Spine  6.57261 1.90552 9.54082
Spine1  4.23835 5.17629 -14.246
HEad  -5.42487 -3.79607 -5.35163
LeftShoulder1  -0.427464 4.63643 -31.6006
LeftArm  -3.6491 9.79748 -39.8867
LeftForeArm  31.4636 -12.84 -6.58329
LeftHand  -0.0718094 7.47174 -1.73212
RightShoulder  -0.784657 -5.76004 28.149
RightArm  22.9825 9.12849 44.8872
RightForeArm  15.7759 15.9265 5.34897
RightHand  -0.325498 6.56192 -3.40596
LeftUpLeg  -2.59814 11.0933 -0.06536
LeftLeg  15.0423 10.4918 1.10507
LeftFoot  -9.59667 0.112728 -3.60018
LeftToes  -3.96543e-010 8.93632e-011 -2.58531e-011
155
root  -2.3783 39.1816 0.305731 -120.448 -83.1611 117.209
RightUpLeg  -5.94909 -2.65701 -21.5418
RightLeg  20.0478 -3.19081 -1.37726
RightFoot  -6.85536 -0.180184 3.66195
RightToes  -1.74624e-010 0 -3.6325e-017
Spine  6.87498 2.35679 8.26515
Spine1  4.51068 5.76121 -14.9699
HEad  -5.61313 -4.3083 -4.21915
LeftShoulder1  -0.469125 4.73467 -31.9749
LeftArm  -8.07935 7.41523 -38.9517
LeftForeArm  34.2345 -6.32231 -6.89141
LeftHand  -0.0777286 8.73823 -0.958537
RightShoulder  -0.73773 -5.62019 28.2122
RightArm  16.7244 6.98285 46.9457
RightForeArm  30.0677 5.54437 8.681
RightHand  -0.0574139 2.03158 -1.16612
LeftUpLeg  -1.56534 10.1503 -0.954436
LeftLeg  14.941 11.0647 0.711591
LeftFoot  -10.7457 0.0811722 -3.34017
LeftToes  -3.96543e-010 8.93632e-011 -2.58531e-011
156
root  -2.70724 39.0841 0.688755 -106.905 -83.4174 103.065
RightUpLeg  -8.33548 -1.21536 -20.8047
RightLeg  26.3336 0.930451 0.255616
RightFoot  -8.42859 -0.182793 4.90471
RightToes  -1.74624e-010 0 -3.6325e-017
Spine  7.28217 1.87613 5.71137
Spine1  5.0353 5.10051 -14.9132
HEad  -7.03813 -4.18799 -3.57677
LeftShoulder1  -0.508811 4.83812 -31.995
LeftArm  -9.04122 5.8753 -38.532
LeftForeArm  33.3762 -1.84198 -5.80199
LeftHand  -0.0951708 10.436 -0.854698
RightShoulder  -0.835381 -5.82765 29.3081
RightArm  13.9006 2.10005 48.2596
RightForeArm  34.1211 2.67636 7.52075
RightHand  0.00210068 0.822371 -0.0546593
LeftUpLeg  -0.840433 9.12461 -1.87333
LeftLeg  15.6606 10.5967 0.646604
LeftFoot  -12.2152 0.0455935 -3.61132
LeftToes  -3.96543e-010 8.93632e-011 -2.58531e-011
